<svg width="900" height="1048" viewBox="0 0 900 1048" class="keymap" xmlns="http://www.w3.org/2000/svg" xmlns:xlink="http://www.w3.org/1999/xlink">
<style>/* inherit to force styles through use tags */
svg path {
    fill: inherit;
}

/* font and background color specifications */
svg.keymap {
    font-family: SFMono-Regular,Consolas,Liberation Mono,Menlo,monospace;
    font-size: 14px;
    font-kerning: normal;
    text-rendering: optimizeLegibility;
    fill: #24292e;
}

/* default key styling */
rect.key {
    fill: #f6f8fa;
}

rect.key, rect.combo {
    stroke: #c9cccf;
    stroke-width: 1;
}

/* default key side styling, only used is draw_key_sides is set */
rect.side {
    filter: brightness(90%);
}

/* color accent for combo boxes */
rect.combo, rect.combo-separate {
    fill: #cdf;
}

/* color accent for held keys */
rect.held, rect.combo.held {
    fill: #fdd;
}

/* color accent for ghost (optional) keys */
rect.ghost, rect.combo.ghost {
    stroke-dasharray: 4, 4;
    stroke-width: 2;
}

text {
    text-anchor: middle;
    dominant-baseline: middle;
}

/* styling for layer labels */
text.label {
    font-weight: bold;
    text-anchor: start;
    stroke: white;
    stroke-width: 4;
    paint-order: stroke;
}

/* styling for optional footer */
text.footer {
    text-anchor: end;
    dominant-baseline: auto;
    stroke: white;
    stroke-width: 4;
    paint-order: stroke;
}

/* styling for combo tap, and key hold/shifted label text */
text.combo, text.hold, text.shifted {
    font-size: 11px;
}

text.hold {
    text-anchor: middle;
    dominant-baseline: auto;
}

text.shifted {
    text-anchor: middle;
    dominant-baseline: hanging;
}

text.layer-activator {
    text-decoration: underline;
}

/* styling for hold/shifted label text in combo box */
text.combo.hold, text.combo.shifted {
    font-size: 8px;
}

/* lighter symbol for transparent keys */
text.trans {
    fill: #7b7e81;
}

/* styling for combo dendrons */
path.combo {
    stroke-width: 1;
    stroke: gray;
    fill: none;
}

/* Start Tabler Icons Cleanup */
/* cannot use height/width with glyphs */
.icon-tabler > path {
    fill: inherit;
    stroke: inherit;
    stroke-width: 2;
}
/* hide tabler's default box */
.icon-tabler > path[stroke="none"][fill="none"] {
    visibility: hidden;
}
/* End Tabler Icons Cleanup */

.none, .trans, .ghost {
  opacity: 0.8;
}

/* color accent for combo boxes */
rect.combo, rect.combo-separate {
    fill: #CCDDFF;
    stroke: #99AACC;
}

/* rect.held, rect.combo.held { */
.held {
  opacity: 1.0;
  filter: drop-shadow(0px 0px 6px #4FC0D0);  /* #7979EC); */
}

text.key.tap {
  font-size: 16px;
  /* font-weight: 900; */
}

text.hold, text.shifted {
  /* font-size: 9px; */
  font-weight: normal;
}

text.combo {
  /* font-size: 11px; */
  /* font-weight: bold;j */
}
</style>
<g transform="translate(30, 0)" class="layer-ALPHA">
<text x="0" y="28" class="label" id="ALPHA">ALPHA</text>
<g transform="translate(0, 56)">
<g transform="translate(28, 49)" class="key none keypos-0">
<rect rx="6" ry="6" x="-26" y="-26" width="52" height="52" class="key none"/>
</g>
<g transform="translate(84, 49)" class="key none keypos-1">
<rect rx="6" ry="6" x="-26" y="-26" width="52" height="52" class="key none"/>
</g>
<g transform="translate(140, 35)" class="key keypos-2">
<rect rx="6" ry="6" x="-26" y="-26" width="52" height="52" class="key"/>
<text x="0" y="0" class="key tap">ESC</text>
</g>
<g transform="translate(196, 28)" class="key keypos-3">
<rect rx="6" ry="6" x="-26" y="-26" width="52" height="52" class="key"/>
<text x="0" y="0" class="key tap">W</text>
</g>
<g transform="translate(252, 35)" class="key keypos-4">
<rect rx="6" ry="6" x="-26" y="-26" width="52" height="52" class="key"/>
<text x="0" y="0" class="key tap">F</text>
</g>
<g transform="translate(308, 42)" class="key keypos-5">
<rect rx="6" ry="6" x="-26" y="-26" width="52" height="52" class="key"/>
<text x="0" y="0" class="key tap">G</text>
</g>
<g transform="translate(532, 42)" class="key keypos-6">
<rect rx="6" ry="6" x="-26" y="-26" width="52" height="52" class="key"/>
<text x="0" y="0" class="key tap">M</text>
</g>
<g transform="translate(588, 35)" class="key keypos-7">
<rect rx="6" ry="6" x="-26" y="-26" width="52" height="52" class="key"/>
<text x="0" y="0" class="key tap">L</text>
</g>
<g transform="translate(644, 28)" class="key keypos-8">
<rect rx="6" ry="6" x="-26" y="-26" width="52" height="52" class="key"/>
<text x="0" y="0" class="key tap">U</text>
</g>
<g transform="translate(700, 35)" class="key keypos-9">
<rect rx="6" ry="6" x="-26" y="-26" width="52" height="52" class="key"/>
<text x="0" y="0" class="key tap">BSPC</text>
</g>
<g transform="translate(756, 49)" class="key none keypos-10">
<rect rx="6" ry="6" x="-26" y="-26" width="52" height="52" class="key none"/>
</g>
<g transform="translate(812, 49)" class="key none keypos-11">
<rect rx="6" ry="6" x="-26" y="-26" width="52" height="52" class="key none"/>
</g>
<g transform="translate(28, 105)" class="key none keypos-12">
<rect rx="6" ry="6" x="-26" y="-26" width="52" height="52" class="key none"/>
</g>
<g transform="translate(84, 105)" class="key none keypos-13">
<rect rx="6" ry="6" x="-26" y="-26" width="52" height="52" class="key none"/>
</g>
<g transform="translate(140, 91)" class="key keypos-14">
<rect rx="6" ry="6" x="-26" y="-26" width="52" height="52" class="key"/>
<text x="0" y="0" class="key tap">TAB</text>
</g>
<g transform="translate(196, 84)" class="key keypos-15">
<rect rx="6" ry="6" x="-26" y="-26" width="52" height="52" class="key"/>
<text x="0" y="0" class="key tap">A</text>
</g>
<g transform="translate(252, 91)" class="key keypos-16">
<rect rx="6" ry="6" x="-26" y="-26" width="52" height="52" class="key"/>
<text x="0" y="0" class="key tap">R</text>
</g>
<g transform="translate(308, 98)" class="key keypos-17">
<rect rx="6" ry="6" x="-26" y="-26" width="52" height="52" class="key"/>
<text x="0" y="0" class="key tap">S</text>
</g>
<g transform="translate(532, 98)" class="key keypos-18">
<rect rx="6" ry="6" x="-26" y="-26" width="52" height="52" class="key"/>
<text x="0" y="0" class="key tap">N</text>
</g>
<g transform="translate(588, 91)" class="key keypos-19">
<rect rx="6" ry="6" x="-26" y="-26" width="52" height="52" class="key"/>
<text x="0" y="0" class="key tap">E</text>
</g>
<g transform="translate(644, 84)" class="key keypos-20">
<rect rx="6" ry="6" x="-26" y="-26" width="52" height="52" class="key"/>
<text x="0" y="0" class="key tap">I</text>
</g>
<g transform="translate(700, 91)" class="key keypos-21">
<rect rx="6" ry="6" x="-26" y="-26" width="52" height="52" class="key"/>
<text x="0" y="0" class="key tap">DEL</text>
</g>
<g transform="translate(756, 105)" class="key none keypos-22">
<rect rx="6" ry="6" x="-26" y="-26" width="52" height="52" class="key none"/>
</g>
<g transform="translate(812, 105)" class="key none keypos-23">
<rect rx="6" ry="6" x="-26" y="-26" width="52" height="52" class="key none"/>
</g>
<g transform="translate(28, 161)" class="key none keypos-24">
<rect rx="6" ry="6" x="-26" y="-26" width="52" height="52" class="key none"/>
</g>
<g transform="translate(84, 161)" class="key none keypos-25">
<rect rx="6" ry="6" x="-26" y="-26" width="52" height="52" class="key none"/>
</g>
<g transform="translate(140, 147)" class="key none keypos-26">
<rect rx="6" ry="6" x="-26" y="-26" width="52" height="52" class="key none"/>
</g>
<g transform="translate(196, 140)" class="key keypos-27">
<rect rx="6" ry="6" x="-26" y="-26" width="52" height="52" class="key"/>
<text x="0" y="0" class="key tap">C</text>
</g>
<g transform="translate(252, 147)" class="key keypos-28">
<rect rx="6" ry="6" x="-26" y="-26" width="52" height="52" class="key"/>
<text x="0" y="0" class="key tap">D</text>
</g>
<g transform="translate(308, 154)" class="key keypos-29">
<rect rx="6" ry="6" x="-26" y="-26" width="52" height="52" class="key"/>
<text x="0" y="0" class="key tap">T</text>
</g>
<g transform="translate(532, 154)" class="key keypos-30">
<rect rx="6" ry="6" x="-26" y="-26" width="52" height="52" class="key"/>
<text x="0" y="0" class="key tap">H</text>
</g>
<g transform="translate(588, 147)" class="key keypos-31">
<rect rx="6" ry="6" x="-26" y="-26" width="52" height="52" class="key"/>
<text x="0" y="0" class="key tap">O</text>
</g>
<g transform="translate(644, 140)" class="key keypos-32">
<rect rx="6" ry="6" x="-26" y="-26" width="52" height="52" class="key"/>
<text x="0" y="0" class="key tap">Y</text>
</g>
<g transform="translate(700, 147)" class="key none keypos-33">
<rect rx="6" ry="6" x="-26" y="-26" width="52" height="52" class="key none"/>
</g>
<g transform="translate(756, 161)" class="key none keypos-34">
<rect rx="6" ry="6" x="-26" y="-26" width="52" height="52" class="key none"/>
</g>
<g transform="translate(812, 161)" class="key none keypos-35">
<rect rx="6" ry="6" x="-26" y="-26" width="52" height="52" class="key none"/>
</g>
<g transform="translate(224, 205)" class="key none keypos-36">
<rect rx="6" ry="6" x="-26" y="-26" width="52" height="52" class="key none"/>
</g>
<g transform="translate(286, 213) rotate(15.0)" class="key keypos-37">
<rect rx="6" ry="6" x="-26" y="-26" width="52" height="52" class="key"/>
<text x="0" y="0" class="key tap">LALT</text>
</g>
<g transform="translate(351, 224) rotate(30.0)" class="key keypos-38">
<rect rx="6" ry="6" x="-26" y="-40" width="52" height="80" class="key"/>
<text x="0" y="0" class="key tap">SPACE</text>
</g>
<g transform="translate(489, 224) rotate(-30.0)" class="key keypos-39">
<rect rx="6" ry="6" x="-26" y="-40" width="52" height="80" class="key"/>
<text x="0" y="0" class="key tap">ENTER</text>
</g>
<g transform="translate(554, 213) rotate(-15.0)" class="key keypos-40">
<rect rx="6" ry="6" x="-26" y="-26" width="52" height="52" class="key"/>
<text x="0" y="0" class="key tap">BSPC</text>
</g>
<g transform="translate(616, 205)" class="key none keypos-41">
<rect rx="6" ry="6" x="-26" y="-26" width="52" height="52" class="key none"/>
</g>
</g>
</g>
<g transform="translate(30, 331)" class="layer-MACRO">
<text x="0" y="28" class="label" id="MACRO">MACRO</text>
<g transform="translate(0, 56)">
<g transform="translate(28, 49)" class="key none keypos-0">
<rect rx="6" ry="6" x="-26" y="-26" width="52" height="52" class="key none"/>
</g>
<g transform="translate(84, 49)" class="key none keypos-1">
<rect rx="6" ry="6" x="-26" y="-26" width="52" height="52" class="key none"/>
</g>
<g transform="translate(140, 35)" class="key keypos-2">
<rect rx="6" ry="6" x="-26" y="-26" width="52" height="52" class="key"/>
<text x="0" y="0" class="key tap">ESC</text>
</g>
<g transform="translate(196, 28)" class="key keypos-3">
<rect rx="6" ry="6" x="-26" y="-26" width="52" height="52" class="key"/>
<text x="0" y="0" class="key tap">W</text>
</g>
<g transform="translate(252, 35)" class="key keypos-4">
<rect rx="6" ry="6" x="-26" y="-26" width="52" height="52" class="key"/>
<text x="0" y="0" class="key tap">F</text>
</g>
<g transform="translate(308, 42)" class="key keypos-5">
<rect rx="6" ry="6" x="-26" y="-26" width="52" height="52" class="key"/>
<text x="0" y="0" class="key tap">G</text>
</g>
<g transform="translate(532, 42)" class="key keypos-6">
<rect rx="6" ry="6" x="-26" y="-26" width="52" height="52" class="key"/>
<text x="0" y="0" class="key tap">M</text>
</g>
<g transform="translate(588, 35)" class="key keypos-7">
<rect rx="6" ry="6" x="-26" y="-26" width="52" height="52" class="key"/>
<text x="0" y="0" class="key tap">L</text>
</g>
<g transform="translate(644, 28)" class="key keypos-8">
<rect rx="6" ry="6" x="-26" y="-26" width="52" height="52" class="key"/>
<text x="0" y="0" class="key tap">U</text>
</g>
<g transform="translate(700, 35)" class="key keypos-9">
<rect rx="6" ry="6" x="-26" y="-26" width="52" height="52" class="key"/>
<text x="0" y="0" class="key tap">BSPC</text>
</g>
<g transform="translate(756, 49)" class="key none keypos-10">
<rect rx="6" ry="6" x="-26" y="-26" width="52" height="52" class="key none"/>
</g>
<g transform="translate(812, 49)" class="key none keypos-11">
<rect rx="6" ry="6" x="-26" y="-26" width="52" height="52" class="key none"/>
</g>
<g transform="translate(28, 105)" class="key none keypos-12">
<rect rx="6" ry="6" x="-26" y="-26" width="52" height="52" class="key none"/>
</g>
<g transform="translate(84, 105)" class="key none keypos-13">
<rect rx="6" ry="6" x="-26" y="-26" width="52" height="52" class="key none"/>
</g>
<g transform="translate(140, 91)" class="key keypos-14">
<rect rx="6" ry="6" x="-26" y="-26" width="52" height="52" class="key"/>
<text x="0" y="0" class="key tap">TAB</text>
</g>
<g transform="translate(196, 84)" class="key keypos-15">
<rect rx="6" ry="6" x="-26" y="-26" width="52" height="52" class="key"/>
<text x="0" y="0" class="key tap">A</text>
</g>
<g transform="translate(252, 91)" class="key keypos-16">
<rect rx="6" ry="6" x="-26" y="-26" width="52" height="52" class="key"/>
<text x="0" y="0" class="key tap">R</text>
</g>
<g transform="translate(308, 98)" class="key keypos-17">
<rect rx="6" ry="6" x="-26" y="-26" width="52" height="52" class="key"/>
<text x="0" y="0" class="key tap">S</text>
</g>
<g transform="translate(532, 98)" class="key keypos-18">
<rect rx="6" ry="6" x="-26" y="-26" width="52" height="52" class="key"/>
<text x="0" y="0" class="key tap">N</text>
</g>
<g transform="translate(588, 91)" class="key keypos-19">
<rect rx="6" ry="6" x="-26" y="-26" width="52" height="52" class="key"/>
<text x="0" y="0" class="key tap">E</text>
</g>
<g transform="translate(644, 84)" class="key keypos-20">
<rect rx="6" ry="6" x="-26" y="-26" width="52" height="52" class="key"/>
<text x="0" y="0" class="key tap">I</text>
</g>
<g transform="translate(700, 91)" class="key keypos-21">
<rect rx="6" ry="6" x="-26" y="-26" width="52" height="52" class="key"/>
<text x="0" y="0" class="key tap">DEL</text>
</g>
<g transform="translate(756, 105)" class="key none keypos-22">
<rect rx="6" ry="6" x="-26" y="-26" width="52" height="52" class="key none"/>
</g>
<g transform="translate(812, 105)" class="key none keypos-23">
<rect rx="6" ry="6" x="-26" y="-26" width="52" height="52" class="key none"/>
</g>
<g transform="translate(28, 161)" class="key none keypos-24">
<rect rx="6" ry="6" x="-26" y="-26" width="52" height="52" class="key none"/>
</g>
<g transform="translate(84, 161)" class="key none keypos-25">
<rect rx="6" ry="6" x="-26" y="-26" width="52" height="52" class="key none"/>
</g>
<g transform="translate(140, 147)" class="key none keypos-26">
<rect rx="6" ry="6" x="-26" y="-26" width="52" height="52" class="key none"/>
</g>
<g transform="translate(196, 140)" class="key keypos-27">
<rect rx="6" ry="6" x="-26" y="-26" width="52" height="52" class="key"/>
<text x="0" y="0" class="key tap">C</text>
</g>
<g transform="translate(252, 147)" class="key keypos-28">
<rect rx="6" ry="6" x="-26" y="-26" width="52" height="52" class="key"/>
<text x="0" y="0" class="key tap">D</text>
</g>
<g transform="translate(308, 154)" class="key keypos-29">
<rect rx="6" ry="6" x="-26" y="-26" width="52" height="52" class="key"/>
<text x="0" y="0" class="key tap">T</text>
</g>
<g transform="translate(532, 154)" class="key keypos-30">
<rect rx="6" ry="6" x="-26" y="-26" width="52" height="52" class="key"/>
<text x="0" y="0" class="key tap">H</text>
</g>
<g transform="translate(588, 147)" class="key keypos-31">
<rect rx="6" ry="6" x="-26" y="-26" width="52" height="52" class="key"/>
<text x="0" y="0" class="key tap">O</text>
</g>
<g transform="translate(644, 140)" class="key keypos-32">
<rect rx="6" ry="6" x="-26" y="-26" width="52" height="52" class="key"/>
<text x="0" y="0" class="key tap">Y</text>
</g>
<g transform="translate(700, 147)" class="key none keypos-33">
<rect rx="6" ry="6" x="-26" y="-26" width="52" height="52" class="key none"/>
</g>
<g transform="translate(756, 161)" class="key none keypos-34">
<rect rx="6" ry="6" x="-26" y="-26" width="52" height="52" class="key none"/>
</g>
<g transform="translate(812, 161)" class="key none keypos-35">
<rect rx="6" ry="6" x="-26" y="-26" width="52" height="52" class="key none"/>
</g>
<g transform="translate(224, 205)" class="key none keypos-36">
<rect rx="6" ry="6" x="-26" y="-26" width="52" height="52" class="key none"/>
</g>
<g transform="translate(286, 213) rotate(15.0)" class="key keypos-37">
<rect rx="6" ry="6" x="-26" y="-26" width="52" height="52" class="key"/>
<text x="0" y="0" class="key tap">LALT</text>
</g>
<g transform="translate(351, 224) rotate(30.0)" class="key keypos-38">
<rect rx="6" ry="6" x="-26" y="-40" width="52" height="80" class="key"/>
<text x="0" y="0" class="key tap">SPACE</text>
</g>
<g transform="translate(489, 224) rotate(-30.0)" class="key keypos-39">
<rect rx="6" ry="6" x="-26" y="-40" width="52" height="80" class="key"/>
<text x="0" y="0" class="key tap">ENTER</text>
</g>
<g transform="translate(554, 213) rotate(-15.0)" class="key keypos-40">
<rect rx="6" ry="6" x="-26" y="-26" width="52" height="52" class="key"/>
<text x="0" y="0" class="key tap">BSPC</text>
</g>
<g transform="translate(616, 205)" class="key none keypos-41">
<rect rx="6" ry="6" x="-26" y="-26" width="52" height="52" class="key none"/>
</g>
</g>
</g>
<g transform="translate(30, 661)" class="layer-NUM">
<text x="0" y="28" class="label" id="NUM">NUM</text>
<g transform="translate(0, 56)">
<g transform="translate(28, 49)" class="key none keypos-0">
<rect rx="6" ry="6" x="-26" y="-26" width="52" height="52" class="key none"/>
</g>
<g transform="translate(84, 49)" class="key none keypos-1">
<rect rx="6" ry="6" x="-26" y="-26" width="52" height="52" class="key none"/>
</g>
<g transform="translate(140, 35)" class="key keypos-2">
<rect rx="6" ry="6" x="-26" y="-26" width="52" height="52" class="key"/>
<text x="0" y="0" class="key tap">ESC</text>
</g>
<g transform="translate(196, 28)" class="key keypos-3">
<rect rx="6" ry="6" x="-26" y="-26" width="52" height="52" class="key"/>
<text x="0" y="0" class="key tap">W</text>
</g>
<g transform="translate(252, 35)" class="key keypos-4">
<rect rx="6" ry="6" x="-26" y="-26" width="52" height="52" class="key"/>
<text x="0" y="0" class="key tap">F</text>
</g>
<g transform="translate(308, 42)" class="key keypos-5">
<rect rx="6" ry="6" x="-26" y="-26" width="52" height="52" class="key"/>
<text x="0" y="0" class="key tap">G</text>
</g>
<g transform="translate(532, 42)" class="key keypos-6">
<rect rx="6" ry="6" x="-26" y="-26" width="52" height="52" class="key"/>
<text x="0" y="0" class="key tap">M</text>
</g>
<g transform="translate(588, 35)" class="key keypos-7">
<rect rx="6" ry="6" x="-26" y="-26" width="52" height="52" class="key"/>
<text x="0" y="0" class="key tap">L</text>
</g>
<g transform="translate(644, 28)" class="key keypos-8">
<rect rx="6" ry="6" x="-26" y="-26" width="52" height="52" class="key"/>
<text x="0" y="0" class="key tap">U</text>
</g>
<g transform="translate(700, 35)" class="key keypos-9">
<rect rx="6" ry="6" x="-26" y="-26" width="52" height="52" class="key"/>
<text x="0" y="0" class="key tap">BSPC</text>
</g>
<g transform="translate(756, 49)" class="key none keypos-10">
<rect rx="6" ry="6" x="-26" y="-26" width="52" height="52" class="key none"/>
</g>
<g transform="translate(812, 49)" class="key none keypos-11">
<rect rx="6" ry="6" x="-26" y="-26" width="52" height="52" class="key none"/>
</g>
<g transform="translate(28, 105)" class="key none keypos-12">
<rect rx="6" ry="6" x="-26" y="-26" width="52" height="52" class="key none"/>
</g>
<g transform="translate(84, 105)" class="key none keypos-13">
<rect rx="6" ry="6" x="-26" y="-26" width="52" height="52" class="key none"/>
</g>
<g transform="translate(140, 91)" class="key keypos-14">
<rect rx="6" ry="6" x="-26" y="-26" width="52" height="52" class="key"/>
<text x="0" y="0" class="key tap">TAB</text>
</g>
<g transform="translate(196, 84)" class="key keypos-15">
<rect rx="6" ry="6" x="-26" y="-26" width="52" height="52" class="key"/>
<text x="0" y="0" class="key tap">A</text>
</g>
<g transform="translate(252, 91)" class="key keypos-16">
<rect rx="6" ry="6" x="-26" y="-26" width="52" height="52" class="key"/>
<text x="0" y="0" class="key tap">R</text>
</g>
<g transform="translate(308, 98)" class="key keypos-17">
<rect rx="6" ry="6" x="-26" y="-26" width="52" height="52" class="key"/>
<text x="0" y="0" class="key tap">S</text>
</g>
<g transform="translate(532, 98)" class="key keypos-18">
<rect rx="6" ry="6" x="-26" y="-26" width="52" height="52" class="key"/>
<text x="0" y="0" class="key tap">N</text>
</g>
<g transform="translate(588, 91)" class="key keypos-19">
<rect rx="6" ry="6" x="-26" y="-26" width="52" height="52" class="key"/>
<text x="0" y="0" class="key tap">E</text>
</g>
<g transform="translate(644, 84)" class="key keypos-20">
<rect rx="6" ry="6" x="-26" y="-26" width="52" height="52" class="key"/>
<text x="0" y="0" class="key tap">I</text>
</g>
<g transform="translate(700, 91)" class="key keypos-21">
<rect rx="6" ry="6" x="-26" y="-26" width="52" height="52" class="key"/>
<text x="0" y="0" class="key tap">DEL</text>
</g>
<g transform="translate(756, 105)" class="key none keypos-22">
<rect rx="6" ry="6" x="-26" y="-26" width="52" height="52" class="key none"/>
</g>
<g transform="translate(812, 105)" class="key none keypos-23">
<rect rx="6" ry="6" x="-26" y="-26" width="52" height="52" class="key none"/>
</g>
<g transform="translate(28, 161)" class="key none keypos-24">
<rect rx="6" ry="6" x="-26" y="-26" width="52" height="52" class="key none"/>
</g>
<g transform="translate(84, 161)" class="key none keypos-25">
<rect rx="6" ry="6" x="-26" y="-26" width="52" height="52" class="key none"/>
</g>
<g transform="translate(140, 147)" class="key none keypos-26">
<rect rx="6" ry="6" x="-26" y="-26" width="52" height="52" class="key none"/>
</g>
<g transform="translate(196, 140)" class="key keypos-27">
<rect rx="6" ry="6" x="-26" y="-26" width="52" height="52" class="key"/>
<text x="0" y="0" class="key tap">C</text>
</g>
<g transform="translate(252, 147)" class="key keypos-28">
<rect rx="6" ry="6" x="-26" y="-26" width="52" height="52" class="key"/>
<text x="0" y="0" class="key tap">D</text>
</g>
<g transform="translate(308, 154)" class="key keypos-29">
<rect rx="6" ry="6" x="-26" y="-26" width="52" height="52" class="key"/>
<text x="0" y="0" class="key tap">T</text>
</g>
<g transform="translate(532, 154)" class="key keypos-30">
<rect rx="6" ry="6" x="-26" y="-26" width="52" height="52" class="key"/>
<text x="0" y="0" class="key tap">H</text>
</g>
<g transform="translate(588, 147)" class="key keypos-31">
<rect rx="6" ry="6" x="-26" y="-26" width="52" height="52" class="key"/>
<text x="0" y="0" class="key tap">O</text>
</g>
<g transform="translate(644, 140)" class="key keypos-32">
<rect rx="6" ry="6" x="-26" y="-26" width="52" height="52" class="key"/>
<text x="0" y="0" class="key tap">Y</text>
</g>
<g transform="translate(700, 147)" class="key none keypos-33">
<rect rx="6" ry="6" x="-26" y="-26" width="52" height="52" class="key none"/>
</g>
<g transform="translate(756, 161)" class="key none keypos-34">
<rect rx="6" ry="6" x="-26" y="-26" width="52" height="52" class="key none"/>
</g>
<g transform="translate(812, 161)" class="key none keypos-35">
<rect rx="6" ry="6" x="-26" y="-26" width="52" height="52" class="key none"/>
</g>
<g transform="translate(224, 205)" class="key none keypos-36">
<rect rx="6" ry="6" x="-26" y="-26" width="52" height="52" class="key none"/>
</g>
<g transform="translate(286, 213) rotate(15.0)" class="key keypos-37">
<rect rx="6" ry="6" x="-26" y="-26" width="52" height="52" class="key"/>
<text x="0" y="0" class="key tap">LALT</text>
</g>
<g transform="translate(351, 224) rotate(30.0)" class="key keypos-38">
<rect rx="6" ry="6" x="-26" y="-40" width="52" height="80" class="key"/>
<text x="0" y="0" class="key tap">SPACE</text>
</g>
<g transform="translate(489, 224) rotate(-30.0)" class="key keypos-39">
<rect rx="6" ry="6" x="-26" y="-40" width="52" height="80" class="key"/>
<text x="0" y="0" class="key tap">ENTER</text>
</g>
<g transform="translate(554, 213) rotate(-15.0)" class="key keypos-40">
<rect rx="6" ry="6" x="-26" y="-26" width="52" height="52" class="key"/>
<text x="0" y="0" class="key tap">BSPC</text>
</g>
<g transform="translate(616, 205)" class="key none keypos-41">
<rect rx="6" ry="6" x="-26" y="-26" width="52" height="52" class="key none"/>
</g>
</g>
</g>
</svg>
