<svg width="900" height="1048" viewBox="0 0 900 1048" class="keymap" xmlns="http://www.w3.org/2000/svg" xmlns:xlink="http://www.w3.org/1999/xlink">
<defs>/* start glyphs */
<svg id="mdi:chevron-double-left">
<svg xmlns="http://www.w3.org/2000/svg" id="mdi-chevron-double-left" viewBox="0 0 24 24"><path d="M18.41,7.41L17,6L11,12L17,18L18.41,16.59L13.83,12L18.41,7.41M12.41,7.41L11,6L5,12L11,18L12.41,16.59L7.83,12L12.41,7.41Z" /></svg>
</svg>
<svg id="mdi:chevron-double-right">
<svg xmlns="http://www.w3.org/2000/svg" id="mdi-chevron-double-right" viewBox="0 0 24 24"><path d="M5.59,7.41L7,6L13,12L7,18L5.59,16.59L10.17,12L5.59,7.41M11.59,7.41L13,6L19,12L13,18L11.59,16.59L16.17,12L11.59,7.41Z" /></svg>
</svg>
<svg id="mdi:chevron-down">
<svg xmlns="http://www.w3.org/2000/svg" id="mdi-chevron-down" viewBox="0 0 24 24"><path d="M7.41,8.58L12,13.17L16.59,8.58L18,10L12,16L6,10L7.41,8.58Z" /></svg>
</svg>
<svg id="mdi:chevron-left">
<svg xmlns="http://www.w3.org/2000/svg" id="mdi-chevron-left" viewBox="0 0 24 24"><path d="M15.41,16.58L10.83,12L15.41,7.41L14,6L8,12L14,18L15.41,16.58Z" /></svg>
</svg>
<svg id="mdi:chevron-right">
<svg xmlns="http://www.w3.org/2000/svg" id="mdi-chevron-right" viewBox="0 0 24 24"><path d="M8.59,16.58L13.17,12L8.59,7.41L10,6L16,12L10,18L8.59,16.58Z" /></svg>
</svg>
<svg id="mdi:chevron-up">
<svg xmlns="http://www.w3.org/2000/svg" id="mdi-chevron-up" viewBox="0 0 24 24"><path d="M7.41,15.41L12,10.83L16.59,15.41L18,14L12,8L6,14L7.41,15.41Z" /></svg>
</svg>
</defs>/* end glyphs */
<style>/* inherit to force styles through use tags */
svg path {
    fill: inherit;
}

/* font and background color specifications */
svg.keymap {
    font-family: SFMono-Regular,Consolas,Liberation Mono,Menlo,monospace;
    font-size: 14px;
    font-kerning: normal;
    text-rendering: optimizeLegibility;
    fill: #24292e;
}

/* default key styling */
rect.key {
    fill: #f6f8fa;
}

rect.key, rect.combo {
    stroke: #c9cccf;
    stroke-width: 1;
}

/* default key side styling, only used is draw_key_sides is set */
rect.side {
    filter: brightness(90%);
}

/* color accent for combo boxes */
rect.combo, rect.combo-separate {
    fill: #cdf;
}

/* color accent for held keys */
rect.held, rect.combo.held {
    fill: #fdd;
}

/* color accent for ghost (optional) keys */
rect.ghost, rect.combo.ghost {
    stroke-dasharray: 4, 4;
    stroke-width: 2;
}

text {
    text-anchor: middle;
    dominant-baseline: middle;
}

/* styling for layer labels */
text.label {
    font-weight: bold;
    text-anchor: start;
    stroke: white;
    stroke-width: 4;
    paint-order: stroke;
}

/* styling for optional footer */
text.footer {
    text-anchor: end;
    dominant-baseline: auto;
    stroke: white;
    stroke-width: 4;
    paint-order: stroke;
}

/* styling for combo tap, and key hold/shifted label text */
text.combo, text.hold, text.shifted {
    font-size: 11px;
}

text.hold {
    text-anchor: middle;
    dominant-baseline: auto;
}

text.shifted {
    text-anchor: middle;
    dominant-baseline: hanging;
}

text.layer-activator {
    text-decoration: underline;
}

/* styling for hold/shifted label text in combo box */
text.combo.hold, text.combo.shifted {
    font-size: 8px;
}

/* lighter symbol for transparent keys */
text.trans {
    fill: #7b7e81;
}

/* styling for combo dendrons */
path.combo {
    stroke-width: 1;
    stroke: gray;
    fill: none;
}

/* Start Tabler Icons Cleanup */
/* cannot use height/width with glyphs */
.icon-tabler > path {
    fill: inherit;
    stroke: inherit;
    stroke-width: 2;
}
/* hide tabler's default box */
.icon-tabler > path[stroke="none"][fill="none"] {
    visibility: hidden;
}
/* End Tabler Icons Cleanup */

.none, .trans, .ghost {
  opacity: 0.8;
}

/* color accent for combo boxes */
rect.combo, rect.combo-separate {
    fill: #CCDDFF;
    stroke: #99AACC;
}

/* rect.held, rect.combo.held { */
.held {
  opacity: 1.0;
  filter: drop-shadow(0px 0px 6px #4FC0D0);  /* #7979EC); */
}

text.key.tap {
  font-size: 16px;
  /* font-weight: 900; */
}

text.hold, text.shifted {
  /* font-size: 9px; */
  font-weight: normal;
}

text.combo {
  /* font-size: 11px; */
  /* font-weight: bold; */
}
</style>
<g transform="translate(30, 0)" class="layer-0">
<text x="0" y="28" class="label" id="x_x">0</text>
<g transform="translate(0, 56)">
<g transform="translate(28, 49)" class="key none keypos-0">
<rect rx="6" ry="6" x="-26" y="-26" width="52" height="52" class="key none"/>
</g>
<g transform="translate(84, 49)" class="key none keypos-1">
<rect rx="6" ry="6" x="-26" y="-26" width="52" height="52" class="key none"/>
</g>
<g transform="translate(140, 35)" class="key keypos-2">
<rect rx="6" ry="6" x="-26" y="-26" width="52" height="52" class="key"/>
<text x="0" y="0" class="key tap">ESC</text>
</g>
<g transform="translate(196, 28)" class="key keypos-3">
<rect rx="6" ry="6" x="-26" y="-26" width="52" height="52" class="key"/>
<text x="0" y="0" class="key tap">W</text>
</g>
<g transform="translate(252, 35)" class="key keypos-4">
<rect rx="6" ry="6" x="-26" y="-26" width="52" height="52" class="key"/>
<text x="0" y="0" class="key tap">F</text>
</g>
<g transform="translate(308, 42)" class="key keypos-5">
<rect rx="6" ry="6" x="-26" y="-26" width="52" height="52" class="key"/>
<text x="0" y="0" class="key tap">G</text>
</g>
<g transform="translate(532, 42)" class="key keypos-6">
<rect rx="6" ry="6" x="-26" y="-26" width="52" height="52" class="key"/>
<text x="0" y="0" class="key tap">M</text>
</g>
<g transform="translate(588, 35)" class="key keypos-7">
<rect rx="6" ry="6" x="-26" y="-26" width="52" height="52" class="key"/>
<text x="0" y="0" class="key tap">L</text>
</g>
<g transform="translate(644, 28)" class="key keypos-8">
<rect rx="6" ry="6" x="-26" y="-26" width="52" height="52" class="key"/>
<text x="0" y="0" class="key tap">U</text>
</g>
<g transform="translate(700, 35)" class="key keypos-9">
<rect rx="6" ry="6" x="-26" y="-26" width="52" height="52" class="key"/>
<text x="0" y="0" class="key tap">BSPC</text>
</g>
<g transform="translate(756, 49)" class="key none keypos-10">
<rect rx="6" ry="6" x="-26" y="-26" width="52" height="52" class="key none"/>
</g>
<g transform="translate(812, 49)" class="key none keypos-11">
<rect rx="6" ry="6" x="-26" y="-26" width="52" height="52" class="key none"/>
</g>
<g transform="translate(28, 105)" class="key none keypos-12">
<rect rx="6" ry="6" x="-26" y="-26" width="52" height="52" class="key none"/>
</g>
<g transform="translate(84, 105)" class="key none keypos-13">
<rect rx="6" ry="6" x="-26" y="-26" width="52" height="52" class="key none"/>
</g>
<g transform="translate(140, 91)" class="key keypos-14">
<rect rx="6" ry="6" x="-26" y="-26" width="52" height="52" class="key"/>
<text x="0" y="0" class="key tap">TAB</text>
</g>
<g transform="translate(196, 84)" class="key keypos-15">
<rect rx="6" ry="6" x="-26" y="-26" width="52" height="52" class="key"/>
<text x="0" y="0" class="key tap">A</text>
<text x="0" y="18" class="key hold">LALT</text>
</g>
<g transform="translate(252, 91)" class="key keypos-16">
<rect rx="6" ry="6" x="-26" y="-26" width="52" height="52" class="key"/>
<text x="0" y="0" class="key tap">R</text>
<text x="0" y="18" class="key hold">LCTRL</text>
</g>
<g transform="translate(308, 98)" class="key keypos-17">
<rect rx="6" ry="6" x="-26" y="-26" width="52" height="52" class="key"/>
<text x="0" y="0" class="key tap">S</text>
<text x="0" y="18" class="key hold">LSHFT</text>
</g>
<g transform="translate(532, 98)" class="key keypos-18">
<rect rx="6" ry="6" x="-26" y="-26" width="52" height="52" class="key"/>
<text x="0" y="0" class="key tap">N</text>
<text x="0" y="18" class="key hold">LSHFT</text>
</g>
<g transform="translate(588, 91)" class="key keypos-19">
<rect rx="6" ry="6" x="-26" y="-26" width="52" height="52" class="key"/>
<text x="0" y="0" class="key tap">E</text>
<text x="0" y="18" class="key hold">LCTRL</text>
</g>
<g transform="translate(644, 84)" class="key keypos-20">
<rect rx="6" ry="6" x="-26" y="-26" width="52" height="52" class="key"/>
<text x="0" y="0" class="key tap">I</text>
<text x="0" y="18" class="key hold">LALT</text>
</g>
<g transform="translate(700, 91)" class="key keypos-21">
<rect rx="6" ry="6" x="-26" y="-26" width="52" height="52" class="key"/>
<text x="0" y="0" class="key tap">DEL</text>
</g>
<g transform="translate(756, 105)" class="key none keypos-22">
<rect rx="6" ry="6" x="-26" y="-26" width="52" height="52" class="key none"/>
</g>
<g transform="translate(812, 105)" class="key none keypos-23">
<rect rx="6" ry="6" x="-26" y="-26" width="52" height="52" class="key none"/>
</g>
<g transform="translate(28, 161)" class="key none keypos-24">
<rect rx="6" ry="6" x="-26" y="-26" width="52" height="52" class="key none"/>
</g>
<g transform="translate(84, 161)" class="key none keypos-25">
<rect rx="6" ry="6" x="-26" y="-26" width="52" height="52" class="key none"/>
</g>
<g transform="translate(140, 147)" class="key none keypos-26">
<rect rx="6" ry="6" x="-26" y="-26" width="52" height="52" class="key none"/>
</g>
<g transform="translate(196, 140)" class="key keypos-27">
<rect rx="6" ry="6" x="-26" y="-26" width="52" height="52" class="key"/>
<text x="0" y="0" class="key tap">C</text>
</g>
<g transform="translate(252, 147)" class="key keypos-28">
<rect rx="6" ry="6" x="-26" y="-26" width="52" height="52" class="key"/>
<text x="0" y="0" class="key tap">D</text>
</g>
<g transform="translate(308, 154)" class="key keypos-29">
<rect rx="6" ry="6" x="-26" y="-26" width="52" height="52" class="key"/>
<text x="0" y="0" class="key tap">T</text>
</g>
<g transform="translate(532, 154)" class="key keypos-30">
<rect rx="6" ry="6" x="-26" y="-26" width="52" height="52" class="key"/>
<text x="0" y="0" class="key tap">H</text>
</g>
<g transform="translate(588, 147)" class="key keypos-31">
<rect rx="6" ry="6" x="-26" y="-26" width="52" height="52" class="key"/>
<text x="0" y="0" class="key tap">O</text>
</g>
<g transform="translate(644, 140)" class="key keypos-32">
<rect rx="6" ry="6" x="-26" y="-26" width="52" height="52" class="key"/>
<text x="0" y="0" class="key tap">Y</text>
</g>
<g transform="translate(700, 147)" class="key none keypos-33">
<rect rx="6" ry="6" x="-26" y="-26" width="52" height="52" class="key none"/>
</g>
<g transform="translate(756, 161)" class="key none keypos-34">
<rect rx="6" ry="6" x="-26" y="-26" width="52" height="52" class="key none"/>
</g>
<g transform="translate(812, 161)" class="key none keypos-35">
<rect rx="6" ry="6" x="-26" y="-26" width="52" height="52" class="key none"/>
</g>
<g transform="translate(224, 205)" class="key none keypos-36">
<rect rx="6" ry="6" x="-26" y="-26" width="52" height="52" class="key none"/>
</g>
<g transform="translate(286, 213) rotate(15.0)" class="key keypos-37">
<rect rx="6" ry="6" x="-26" y="-26" width="52" height="52" class="key"/>
<text x="0" y="0" class="key tap">=</text>
<text x="0" y="18" class="key hold">LWIN</text>
</g>
<g transform="translate(351, 224) rotate(30.0)" class="key keypos-38">
<rect rx="6" ry="6" x="-26" y="-40" width="52" height="80" class="key"/>
<text x="0" y="0" class="key tap">_</text>
<a href="#x_x">
<text x="0" y="32" class="key hold layer-activator">1</text>
</a></g>
<g transform="translate(489, 224) rotate(-30.0)" class="key keypos-39">
<rect rx="6" ry="6" x="-26" y="-40" width="52" height="80" class="key"/>
<text x="0" y="0" class="key tap">SPACE</text>
<a href="#x_x">
<text x="0" y="32" class="key hold layer-activator">2</text>
</a></g>
<g transform="translate(554, 213) rotate(-15.0)" class="key keypos-40">
<rect rx="6" ry="6" x="-26" y="-26" width="52" height="52" class="key"/>
<text x="0" y="0" class="key tap">ENTER</text>
<text x="0" y="18" class="key hold">RALT</text>
</g>
<g transform="translate(616, 205)" class="key none keypos-41">
<rect rx="6" ry="6" x="-26" y="-26" width="52" height="52" class="key none"/>
</g>
<g class="combo combopos-0">
<path d="M420,42 l-93,0" class="combo"/>
<path d="M420,42 l93,0" class="combo"/>
<rect rx="6" ry="6" x="400" y="34" width="41" height="15" class="combo"/>
<text x="420" y="42" class="combo tap">CAPS</text>
</g>
<g class="combo combopos-1">
<path d="M420,98 l-93,0" class="combo"/>
<path d="M420,98 l93,0" class="combo"/>
<rect rx="6" ry="6" x="400" y="90" width="41" height="15" class="combo"/>
<text x="420" y="98" class="combo tap">CWRD</text>
</g>
<g class="combo combopos-2">
<rect rx="6" ry="6" x="212" y="24" width="25" height="15" class="combo"/>
<text x="224" y="32" class="combo tap">Q</text>
</g>
<g class="combo combopos-3">
<rect rx="6" ry="6" x="268" y="31" width="25" height="15" class="combo"/>
<text x="280" y="38" class="combo tap">B</text>
</g>
<g class="combo combopos-4">
<rect rx="6" ry="6" x="212" y="136" width="25" height="15" class="combo"/>
<text x="224" y="144" class="combo tap">Z</text>
</g>
<g class="combo combopos-5">
<rect rx="6" ry="6" x="268" y="143" width="25" height="15" class="combo"/>
<text x="280" y="150" class="combo tap">X</text>
</g>
<g class="combo combopos-6">
<rect rx="6" ry="6" x="548" y="31" width="25" height="15" class="combo"/>
<text x="560" y="38" class="combo tap">J</text>
</g>
<g class="combo combopos-7">
<rect rx="6" ry="6" x="604" y="24" width="25" height="15" class="combo"/>
<text x="616" y="32" class="combo tap">P</text>
</g>
<g class="combo combopos-8">
<rect rx="6" ry="6" x="548" y="143" width="25" height="15" class="combo"/>
<text x="560" y="150" class="combo tap">V</text>
</g>
<g class="combo combopos-9">
<rect rx="6" ry="6" x="604" y="136" width="25" height="15" class="combo"/>
<text x="616" y="144" class="combo tap">K</text>
</g>
<g class="combo combopos-10">
<rect rx="6" ry="6" x="296" y="62" width="25" height="15" class="combo"/>
<text x="308" y="70" class="combo tap">`~</text>
</g>
<g class="combo combopos-11">
<rect rx="6" ry="6" x="520" y="62" width="25" height="15" class="combo"/>
<text x="532" y="70" class="combo tap">&#x27;&quot;</text>
</g>
<g class="combo combopos-12">
<rect rx="6" ry="6" x="296" y="118" width="25" height="15" class="combo"/>
<text x="308" y="126" class="combo tap">.:\</text>
</g>
<g class="combo combopos-13">
<rect rx="6" ry="6" x="520" y="118" width="25" height="15" class="combo"/>
<text x="532" y="126" class="combo tap">,;/</text>
</g>
<g class="combo combopos-14">
<rect rx="6" ry="6" x="572" y="112" width="31" height="15" class="combo"/>
<text x="588" y="119" class="combo tap">(&lt;[{</text>
</g>
<g class="combo combopos-15">
<rect rx="6" ry="6" x="628" y="104" width="31" height="15" class="combo"/>
<text x="644" y="112" class="combo tap">)&gt;}]</text>
</g>
<g class="combo combopos-16">
<rect rx="6" ry="6" x="184" y="104" width="25" height="15" class="combo"/>
<text x="196" y="112" class="combo tap">+*</text>
</g>
<g class="combo combopos-17">
<rect rx="6" ry="6" x="240" y="112" width="25" height="15" class="combo"/>
<text x="252" y="119" class="combo tap">-/</text>
</g>
<g class="combo combopos-18">
<rect rx="6" ry="6" x="184" y="48" width="25" height="15" class="combo"/>
<text x="196" y="56" class="combo tap">!?</text>
</g>
<g class="combo combopos-19">
<rect rx="6" ry="6" x="240" y="56" width="25" height="15" class="combo"/>
<text x="252" y="63" class="combo tap">#$%</text>
</g>
<g class="combo combopos-20">
<rect rx="6" ry="6" x="576" y="56" width="25" height="15" class="combo"/>
<text x="588" y="63" class="combo tap">^@</text>
</g>
<g class="combo combopos-21">
<rect rx="6" ry="6" x="632" y="48" width="25" height="15" class="combo"/>
<text x="644" y="56" class="combo tap">&amp;|</text>
</g>
</g>
</g>
<g transform="translate(30, 331)" class="layer-1">
<text x="0" y="28" class="label" id="x_x">1</text>
<g transform="translate(0, 56)">
<g transform="translate(28, 49)" class="key none keypos-0">
<rect rx="6" ry="6" x="-26" y="-26" width="52" height="52" class="key none"/>
</g>
<g transform="translate(84, 49)" class="key none keypos-1">
<rect rx="6" ry="6" x="-26" y="-26" width="52" height="52" class="key none"/>
</g>
<g transform="translate(140, 35)" class="key keypos-2">
<rect rx="6" ry="6" x="-26" y="-26" width="52" height="52" class="key"/>
<text x="0" y="0" class="key tap">ESC</text>
</g>
<g transform="translate(196, 28)" class="key keypos-3">
<rect rx="6" ry="6" x="-26" y="-26" width="52" height="52" class="key"/>
<text x="0" y="0" class="key tap">F1</text>
</g>
<g transform="translate(252, 35)" class="key keypos-4">
<rect rx="6" ry="6" x="-26" y="-26" width="52" height="52" class="key"/>
<text x="0" y="0" class="key tap">F2</text>
</g>
<g transform="translate(308, 42)" class="key keypos-5">
<rect rx="6" ry="6" x="-26" y="-26" width="52" height="52" class="key"/>
<text x="0" y="0" class="key tap">F3</text>
</g>
<g transform="translate(532, 42)" class="key keypos-6">
<rect rx="6" ry="6" x="-26" y="-26" width="52" height="52" class="key"/>
<text x="0" y="0" class="key tap">7&amp;</text>
</g>
<g transform="translate(588, 35)" class="key keypos-7">
<rect rx="6" ry="6" x="-26" y="-26" width="52" height="52" class="key"/>
<text x="0" y="0" class="key tap">8*</text>
</g>
<g transform="translate(644, 28)" class="key keypos-8">
<rect rx="6" ry="6" x="-26" y="-26" width="52" height="52" class="key"/>
<text x="0" y="0" class="key tap">9(</text>
</g>
<g transform="translate(700, 35)" class="key keypos-9">
<rect rx="6" ry="6" x="-26" y="-26" width="52" height="52" class="key"/>
<text x="0" y="0" class="key tap">BSPC</text>
</g>
<g transform="translate(756, 49)" class="key none keypos-10">
<rect rx="6" ry="6" x="-26" y="-26" width="52" height="52" class="key none"/>
</g>
<g transform="translate(812, 49)" class="key none keypos-11">
<rect rx="6" ry="6" x="-26" y="-26" width="52" height="52" class="key none"/>
</g>
<g transform="translate(28, 105)" class="key none keypos-12">
<rect rx="6" ry="6" x="-26" y="-26" width="52" height="52" class="key none"/>
</g>
<g transform="translate(84, 105)" class="key none keypos-13">
<rect rx="6" ry="6" x="-26" y="-26" width="52" height="52" class="key none"/>
</g>
<g transform="translate(140, 91)" class="key keypos-14">
<rect rx="6" ry="6" x="-26" y="-26" width="52" height="52" class="key"/>
<text x="0" y="0" class="key tap">TAB</text>
</g>
<g transform="translate(196, 84)" class="key keypos-15">
<rect rx="6" ry="6" x="-26" y="-26" width="52" height="52" class="key"/>
<text x="0" y="0" class="key tap">F4</text>
<text x="0" y="18" class="key hold">LALT</text>
</g>
<g transform="translate(252, 91)" class="key keypos-16">
<rect rx="6" ry="6" x="-26" y="-26" width="52" height="52" class="key"/>
<text x="0" y="0" class="key tap">F5</text>
<text x="0" y="18" class="key hold">LCTRL</text>
</g>
<g transform="translate(308, 98)" class="key keypos-17">
<rect rx="6" ry="6" x="-26" y="-26" width="52" height="52" class="key"/>
<text x="0" y="0" class="key tap">F6</text>
<text x="0" y="18" class="key hold">LSHFT</text>
</g>
<g transform="translate(532, 98)" class="key keypos-18">
<rect rx="6" ry="6" x="-26" y="-26" width="52" height="52" class="key"/>
<text x="0" y="0" class="key tap">4$</text>
<text x="0" y="18" class="key hold">LSHFT</text>
</g>
<g transform="translate(588, 91)" class="key keypos-19">
<rect rx="6" ry="6" x="-26" y="-26" width="52" height="52" class="key"/>
<text x="0" y="0" class="key tap">5%</text>
<text x="0" y="18" class="key hold">LCTRL</text>
</g>
<g transform="translate(644, 84)" class="key keypos-20">
<rect rx="6" ry="6" x="-26" y="-26" width="52" height="52" class="key"/>
<text x="0" y="0" class="key tap">6^</text>
<text x="0" y="18" class="key hold">LALT</text>
</g>
<g transform="translate(700, 91)" class="key keypos-21">
<rect rx="6" ry="6" x="-26" y="-26" width="52" height="52" class="key"/>
<text x="0" y="0" class="key tap">DEL</text>
</g>
<g transform="translate(756, 105)" class="key none keypos-22">
<rect rx="6" ry="6" x="-26" y="-26" width="52" height="52" class="key none"/>
</g>
<g transform="translate(812, 105)" class="key none keypos-23">
<rect rx="6" ry="6" x="-26" y="-26" width="52" height="52" class="key none"/>
</g>
<g transform="translate(28, 161)" class="key none keypos-24">
<rect rx="6" ry="6" x="-26" y="-26" width="52" height="52" class="key none"/>
</g>
<g transform="translate(84, 161)" class="key none keypos-25">
<rect rx="6" ry="6" x="-26" y="-26" width="52" height="52" class="key none"/>
</g>
<g transform="translate(140, 147)" class="key none keypos-26">
<rect rx="6" ry="6" x="-26" y="-26" width="52" height="52" class="key none"/>
</g>
<g transform="translate(196, 140)" class="key keypos-27">
<rect rx="6" ry="6" x="-26" y="-26" width="52" height="52" class="key"/>
<text x="0" y="0" class="key tap">F7</text>
</g>
<g transform="translate(252, 147)" class="key keypos-28">
<rect rx="6" ry="6" x="-26" y="-26" width="52" height="52" class="key"/>
<text x="0" y="0" class="key tap">F8</text>
</g>
<g transform="translate(308, 154)" class="key keypos-29">
<rect rx="6" ry="6" x="-26" y="-26" width="52" height="52" class="key"/>
<text x="0" y="0" class="key tap">F9</text>
</g>
<g transform="translate(532, 154)" class="key keypos-30">
<rect rx="6" ry="6" x="-26" y="-26" width="52" height="52" class="key"/>
<text x="0" y="0" class="key tap">1!</text>
</g>
<g transform="translate(588, 147)" class="key keypos-31">
<rect rx="6" ry="6" x="-26" y="-26" width="52" height="52" class="key"/>
<text x="0" y="0" class="key tap">2@</text>
</g>
<g transform="translate(644, 140)" class="key keypos-32">
<rect rx="6" ry="6" x="-26" y="-26" width="52" height="52" class="key"/>
<text x="0" y="0" class="key tap">3#</text>
</g>
<g transform="translate(700, 147)" class="key none keypos-33">
<rect rx="6" ry="6" x="-26" y="-26" width="52" height="52" class="key none"/>
</g>
<g transform="translate(756, 161)" class="key none keypos-34">
<rect rx="6" ry="6" x="-26" y="-26" width="52" height="52" class="key none"/>
</g>
<g transform="translate(812, 161)" class="key none keypos-35">
<rect rx="6" ry="6" x="-26" y="-26" width="52" height="52" class="key none"/>
</g>
<g transform="translate(224, 205)" class="key none keypos-36">
<rect rx="6" ry="6" x="-26" y="-26" width="52" height="52" class="key none"/>
</g>
<g transform="translate(286, 213) rotate(15.0)" class="key keypos-37">
<rect rx="6" ry="6" x="-26" y="-26" width="52" height="52" class="key"/>
<text x="0" y="0" class="key tap">=</text>
<text x="0" y="18" class="key hold">LWIN</text>
</g>
<g transform="translate(351, 224) rotate(30.0)" class="key held keypos-38">
<rect rx="6" ry="6" x="-26" y="-40" width="52" height="80" class="key held"/>
</g>
<g transform="translate(489, 224) rotate(-30.0)" class="key keypos-39">
<rect rx="6" ry="6" x="-26" y="-40" width="52" height="80" class="key"/>
<text x="0" y="0" class="key tap">SPACE</text>
<a href="#x_x">
<text x="0" y="32" class="key hold layer-activator">2</text>
</a></g>
<g transform="translate(554, 213) rotate(-15.0)" class="key keypos-40">
<rect rx="6" ry="6" x="-26" y="-26" width="52" height="52" class="key"/>
<text x="0" y="0" class="key tap">ENTER</text>
<text x="0" y="18" class="key hold">RALT</text>
</g>
<g transform="translate(616, 205)" class="key none keypos-41">
<rect rx="6" ry="6" x="-26" y="-26" width="52" height="52" class="key none"/>
</g>
<g class="combo combopos-0">
<rect rx="6" ry="6" x="184" y="104" width="25" height="15" class="combo"/>
<text x="196" y="112" class="combo tap">F10</text>
</g>
<g class="combo combopos-1">
<rect rx="6" ry="6" x="240" y="112" width="25" height="15" class="combo"/>
<text x="252" y="119" class="combo tap">F11</text>
</g>
<g class="combo combopos-2">
<rect rx="6" ry="6" x="296" y="118" width="25" height="15" class="combo"/>
<text x="308" y="126" class="combo tap">F12</text>
</g>
<g class="combo combopos-3">
<rect rx="6" ry="6" x="548" y="143" width="25" height="15" class="combo"/>
<text x="560" y="150" class="combo tap">0)</text>
</g>
</g>
</g>
<g transform="translate(30, 661)" class="layer-2">
<text x="0" y="28" class="label" id="x_x">2</text>
<g transform="translate(0, 56)">
<g transform="translate(28, 49)" class="key none keypos-0">
<rect rx="6" ry="6" x="-26" y="-26" width="52" height="52" class="key none"/>
</g>
<g transform="translate(84, 49)" class="key none keypos-1">
<rect rx="6" ry="6" x="-26" y="-26" width="52" height="52" class="key none"/>
</g>
<g transform="translate(140, 35)" class="key keypos-2">
<rect rx="6" ry="6" x="-26" y="-26" width="52" height="52" class="key"/>
<text x="0" y="0" class="key tap">ESC</text>
</g>
<g transform="translate(196, 28)" class="key none keypos-3">
<rect rx="6" ry="6" x="-26" y="-26" width="52" height="52" class="key none"/>
</g>
<g transform="translate(252, 35)" class="key none keypos-4">
<rect rx="6" ry="6" x="-26" y="-26" width="52" height="52" class="key none"/>
</g>
<g transform="translate(308, 42)" class="key none keypos-5">
<rect rx="6" ry="6" x="-26" y="-26" width="52" height="52" class="key none"/>
</g>
<g transform="translate(532, 42)" class="key none keypos-6">
<rect rx="6" ry="6" x="-26" y="-26" width="52" height="52" class="key none"/>
</g>
<g transform="translate(588, 35)" class="key none keypos-7">
<rect rx="6" ry="6" x="-26" y="-26" width="52" height="52" class="key none"/>
</g>
<g transform="translate(644, 28)" class="key none keypos-8">
<rect rx="6" ry="6" x="-26" y="-26" width="52" height="52" class="key none"/>
</g>
<g transform="translate(700, 35)" class="key keypos-9">
<rect rx="6" ry="6" x="-26" y="-26" width="52" height="52" class="key"/>
<text x="0" y="0" class="key tap">BSPC</text>
</g>
<g transform="translate(756, 49)" class="key none keypos-10">
<rect rx="6" ry="6" x="-26" y="-26" width="52" height="52" class="key none"/>
</g>
<g transform="translate(812, 49)" class="key none keypos-11">
<rect rx="6" ry="6" x="-26" y="-26" width="52" height="52" class="key none"/>
</g>
<g transform="translate(28, 105)" class="key none keypos-12">
<rect rx="6" ry="6" x="-26" y="-26" width="52" height="52" class="key none"/>
</g>
<g transform="translate(84, 105)" class="key none keypos-13">
<rect rx="6" ry="6" x="-26" y="-26" width="52" height="52" class="key none"/>
</g>
<g transform="translate(140, 91)" class="key keypos-14">
<rect rx="6" ry="6" x="-26" y="-26" width="52" height="52" class="key"/>
<text x="0" y="0" class="key tap">TAB</text>
</g>
<g transform="translate(196, 84)" class="key none keypos-15">
<rect rx="6" ry="6" x="-26" y="-26" width="52" height="52" class="key none"/>
</g>
<g transform="translate(252, 91)" class="key none keypos-16">
<rect rx="6" ry="6" x="-26" y="-26" width="52" height="52" class="key none"/>
</g>
<g transform="translate(308, 98)" class="key none keypos-17">
<rect rx="6" ry="6" x="-26" y="-26" width="52" height="52" class="key none"/>
</g>
<g transform="translate(532, 98)" class="key keypos-18">
<rect rx="6" ry="6" x="-26" y="-26" width="52" height="52" class="key"/>
<text x="0" y="0" class="key tap">LEFT</text>
<use href="#mdi:chevron-left" xlink:href="#mdi:chevron-left" x="-6" y="6" height="12" width="12.0" class="key hold glyph mdi:chevron-left"/>
</g>
<g transform="translate(588, 91)" class="key keypos-19">
<rect rx="6" ry="6" x="-26" y="-26" width="52" height="52" class="key"/>
<text x="0" y="0" class="key tap">UP</text>
<use href="#mdi:chevron-up" xlink:href="#mdi:chevron-up" x="-6" y="6" height="12" width="12.0" class="key hold glyph mdi:chevron-up"/>
</g>
<g transform="translate(644, 84)" class="key keypos-20">
<rect rx="6" ry="6" x="-26" y="-26" width="52" height="52" class="key"/>
<text x="0" y="0" class="key tap">RIGHT</text>
<use href="#mdi:chevron-right" xlink:href="#mdi:chevron-right" x="-6" y="6" height="12" width="12.0" class="key hold glyph mdi:chevron-right"/>
</g>
<g transform="translate(700, 91)" class="key keypos-21">
<rect rx="6" ry="6" x="-26" y="-26" width="52" height="52" class="key"/>
<text x="0" y="0" class="key tap">DEL</text>
</g>
<g transform="translate(756, 105)" class="key none keypos-22">
<rect rx="6" ry="6" x="-26" y="-26" width="52" height="52" class="key none"/>
</g>
<g transform="translate(812, 105)" class="key none keypos-23">
<rect rx="6" ry="6" x="-26" y="-26" width="52" height="52" class="key none"/>
</g>
<g transform="translate(28, 161)" class="key none keypos-24">
<rect rx="6" ry="6" x="-26" y="-26" width="52" height="52" class="key none"/>
</g>
<g transform="translate(84, 161)" class="key none keypos-25">
<rect rx="6" ry="6" x="-26" y="-26" width="52" height="52" class="key none"/>
</g>
<g transform="translate(140, 147)" class="key none keypos-26">
<rect rx="6" ry="6" x="-26" y="-26" width="52" height="52" class="key none"/>
</g>
<g transform="translate(196, 140)" class="key none keypos-27">
<rect rx="6" ry="6" x="-26" y="-26" width="52" height="52" class="key none"/>
</g>
<g transform="translate(252, 147)" class="key none keypos-28">
<rect rx="6" ry="6" x="-26" y="-26" width="52" height="52" class="key none"/>
</g>
<g transform="translate(308, 154)" class="key none keypos-29">
<rect rx="6" ry="6" x="-26" y="-26" width="52" height="52" class="key none"/>
</g>
<g transform="translate(532, 154)" class="key keypos-30">
<rect rx="6" ry="6" x="-26" y="-26" width="52" height="52" class="key"/>
<text x="0" y="0" class="key tap">&lt;WORD</text>
<use href="#mdi:chevron-double-left" xlink:href="#mdi:chevron-double-left" x="-6" y="6" height="12" width="12.0" class="key hold glyph mdi:chevron-double-left"/>
</g>
<g transform="translate(588, 147)" class="key keypos-31">
<rect rx="6" ry="6" x="-26" y="-26" width="52" height="52" class="key"/>
<text x="0" y="0" class="key tap">DOWN</text>
<use href="#mdi:chevron-down" xlink:href="#mdi:chevron-down" x="-6" y="6" height="12" width="12.0" class="key hold glyph mdi:chevron-down"/>
</g>
<g transform="translate(644, 140)" class="key keypos-32">
<rect rx="6" ry="6" x="-26" y="-26" width="52" height="52" class="key"/>
<text x="0" y="0" class="key tap">WORD&gt;</text>
<use href="#mdi:chevron-double-right" xlink:href="#mdi:chevron-double-right" x="-6" y="6" height="12" width="12.0" class="key hold glyph mdi:chevron-double-right"/>
</g>
<g transform="translate(700, 147)" class="key none keypos-33">
<rect rx="6" ry="6" x="-26" y="-26" width="52" height="52" class="key none"/>
</g>
<g transform="translate(756, 161)" class="key none keypos-34">
<rect rx="6" ry="6" x="-26" y="-26" width="52" height="52" class="key none"/>
</g>
<g transform="translate(812, 161)" class="key none keypos-35">
<rect rx="6" ry="6" x="-26" y="-26" width="52" height="52" class="key none"/>
</g>
<g transform="translate(224, 205)" class="key none keypos-36">
<rect rx="6" ry="6" x="-26" y="-26" width="52" height="52" class="key none"/>
</g>
<g transform="translate(286, 213) rotate(15.0)" class="key keypos-37">
<rect rx="6" ry="6" x="-26" y="-26" width="52" height="52" class="key"/>
<text x="0" y="0" class="key tap">=</text>
<text x="0" y="18" class="key hold">LWIN</text>
</g>
<g transform="translate(351, 224) rotate(30.0)" class="key keypos-38">
<rect rx="6" ry="6" x="-26" y="-40" width="52" height="80" class="key"/>
<text x="0" y="0" class="key tap">_</text>
<a href="#x_x">
<text x="0" y="32" class="key hold layer-activator">1</text>
</a></g>
<g transform="translate(489, 224) rotate(-30.0)" class="key held keypos-39">
<rect rx="6" ry="6" x="-26" y="-40" width="52" height="80" class="key held"/>
</g>
<g transform="translate(554, 213) rotate(-15.0)" class="key keypos-40">
<rect rx="6" ry="6" x="-26" y="-26" width="52" height="52" class="key"/>
<text x="0" y="0" class="key tap">ENTER</text>
<text x="0" y="18" class="key hold">RALT</text>
</g>
<g transform="translate(616, 205)" class="key none keypos-41">
<rect rx="6" ry="6" x="-26" y="-26" width="52" height="52" class="key none"/>
</g>
</g>
</g>
</svg>
